<?xml version="1.0" encoding="utf-8"?>
<!-- Generator: Adobe Illustrator 22.0.1, SVG Export Plug-In . SVG Version: 6.00 Build 0)  -->
<svg version="1.1" id="Capa_1" xmlns="http://www.w3.org/2000/svg" xmlns:xlink="http://www.w3.org/1999/xlink" x="0px" y="0px"
	 viewBox="0 0 50 50" style="enable-background:new 0 0 50 50;" xml:space="preserve">
<style type="text/css">
	.st0{fill:#FFFFFF;}
</style>
<g>
	<!--<head  class="active-path"></head>-->
	<g>
		<g>
			<path class="st0" d="M47.2,34.7c2.6-5.5,2.9-11.6,0.9-17.3C43.9,5.7,31-0.5,19.2,3.7C13.5,5.7,9,9.8,6.4,15.1l-2.5-7
				C3.6,7.2,2.6,6.7,1.7,7c-0.9,0.3-1.4,1.3-1,2.2l4,11.3c0.2,0.4,0.5,0.8,0.9,1c0.2,0.1,0.5,0.2,0.7,0.2c0.2,0,0.4,0,0.6-0.1
				l11.9-4.2c0.9-0.3,1.4-1.3,1-2.2c-0.3-0.9-1.3-1.4-2.2-1l-8.3,3c2.1-4.7,6.1-8.4,11.1-10.1c10-3.5,21,1.7,24.5,11.7
				c3.5,10-1.7,21-11.7,24.5c-7.2,2.6-15.3,0.6-20.5-5c-0.6-0.7-1.7-0.7-2.4-0.1c-0.7,0.6-0.7,1.7-0.1,2.4
				c4.4,4.7,10.4,7.2,16.6,7.2c2.5,0,5.1-0.4,7.6-1.3C40,44.3,44.6,40.2,47.2,34.7z"/>
		</g>
	</g>
</g>
</svg>
