<?xml version="1.0" encoding="utf-8"?>
<!-- Generator: Adobe Illustrator 22.0.1, SVG Export Plug-In . SVG Version: 6.00 Build 0)  -->
<svg version="1.1" id="Capa_1" xmlns="http://www.w3.org/2000/svg" xmlns:xlink="http://www.w3.org/1999/xlink" x="0px" y="0px"
	 viewBox="0 0 28.3 28.3" style="enable-background:new 0 0 28.3 28.3;" xml:space="preserve">
<g>
	<path d="M18.8,13.6L13,9.3c-0.2-0.2-0.5-0.2-0.7-0.1c-0.2,0.1-0.4,0.4-0.4,0.6v8.6c0,0.3,0.1,0.5,0.4,0.6c0.1,0.1,0.2,0.1,0.3,0.1
		c0.1,0,0.3,0,0.4-0.1l5.9-4.3c0.2-0.1,0.3-0.3,0.3-0.6C19.1,14,19,13.8,18.8,13.6z"/>
	<path d="M14.2,0C6.3,0,0,6.3,0,14.2C0,22,6.3,28.3,14.2,28.3c7.8,0,14.2-6.3,14.2-14.2C28.3,6.3,22,0,14.2,0z M14.2,26
		C7.7,26,2.4,20.7,2.4,14.2c0-6.5,5.3-11.8,11.8-11.8C20.7,2.4,26,7.7,26,14.2C26,20.7,20.7,26,14.2,26z"/>
</g>
</svg>
